<?xml version="1.0" encoding="utf-8"?>
<!-- Generator: Adobe Illustrator 23.0.2, SVG Export Plug-In . SVG Version: 6.00 Build 0)  -->
<svg version="1.1" id="Шар_1" xmlns="http://www.w3.org/2000/svg" xmlns:xlink="http://www.w3.org/1999/xlink" x="0px" y="0px"
	 viewBox="0 0 1000 1000" style="enable-background:new 0 0 1000 1000;" xml:space="preserve">
<style type="text/css">
	.st0{fill:#7EA875;}
</style>
<g id="logo_2">
	<g>
		<path class="st0" d="M154.9,545.6c25.7,17.6,64,6.5,85.5-24.8s18.1-71.1-7.6-88.7c-10.8-7.4-23.9-9.7-37-7.6
			c0.5,1.9,0.7,3.9,0.7,6c0,12.7-8.9,23.3-20.8,25.9l-26,37.8c-0.9,1.3-2.7,1.5-4.2,0.5c-1.4-1-1.9-2.8-1-4.1l23.2-33.8
			c-5.9-0.5-11.2-2.9-15.4-6.6c-1.7,2.1-3.4,4.3-5,6.5C125.9,488.2,129.3,528,154.9,545.6z M240.6,480.8c0.9-1.3,2.7-1.5,4.2-0.5
			c1.4,1,1.9,2.8,1,4.1l-35.4,51.5c-0.9,1.3-2.7,1.5-4.2,0.5c-1.4-1-1.9-2.8-1-4.1L240.6,480.8z M236.2,459.7c1.4,1,1.9,2.8,1,4.1
			l-50.2,73c-0.9,1.3-2.7,1.5-4.2,0.5c-1.4-1-1.9-2.8-1-4.1l50.2-73.1C232.9,458.9,234.8,458.7,236.2,459.7z M224.1,445.3
			c1.4,1,1.9,2.8,1,4.1l-60.2,87.7c-0.9,1.3-2.7,1.5-4.2,0.5c-1.4-1-1.9-2.8-1-4.1l60.2-87.7C220.8,444.5,222.6,444.3,224.1,445.3z
			 M151.6,512.5l50.2-73.1c0.9-1.3,2.7-1.5,4.2-0.5c1.4,1,1.9,2.8,1,4.1l-50.2,73c-0.9,1.3-2.7,1.5-4.2,0.5
			C151.2,515.6,150.8,513.8,151.6,512.5z"/>
		<path class="st0" d="M186.4,375.4c-68.8,0-124.6,55.8-124.6,124.6c0,39.3,18.2,74.4,46.7,97.2l21.3-31.1c0.8-4.6,1.3-9.4,1.4-14.1
			c0.2-8-0.6-16.1-2.3-24.1c-2.8-6.4-4.7-13.5-5.4-21.1c-1.8-19.1,3.6-38.9,15.2-56c2.2-3.2,4.6-6.3,7.2-9.2
			c-1.6-3.4-2.5-7.3-2.5-11.3c0-14.6,11.9-26.6,26.6-26.6c8.9,0,16.9,4.4,21.7,11.3c16.8-3.2,33.1,0,46.5,9.2
			c15,10.3,24.3,26.7,26.2,46.3c1.9,19.1-3.6,38.9-15.2,55.9c-11.7,17-28.3,29.2-46.7,34.3c-7,2-14,2.8-20.8,2.6
			c-7.9,1.3-15.6,3.5-22.8,6.3c-4.9,1.9-9.6,4.2-14.2,6.8l-21.1,30.8c18.5,10.9,40,17.1,63,17.1c68.8,0,124.6-55.8,124.6-124.6
			S255.2,375.4,186.4,375.4z"/>
		<path class="st0" d="M139.6,567.8c4.6-2.6,9.4-4.9,14.4-6.9c1.9-0.7,3.8-1.4,5.8-2.1c-3.5-1.5-6.9-3.4-10.1-5.6
			c-3.2-2.2-6.2-4.7-8.8-7.4c0.1,2.5,0.1,5,0.1,7.5C140.8,558.2,140.4,563,139.6,567.8z"/>
		<path class="st0" d="M156.4,445.8c3.6,3.2,8.4,5.1,13.6,5.1c0.6,0,1.3,0,1.9-0.1c3.9-0.3,7.4-1.8,10.3-4c5-3.7,8.3-9.7,8.3-16.4
			c0-1.6-0.2-3.2-0.6-4.7c-0.8-3.4-2.5-6.5-4.7-9c-3.8-4.1-9.2-6.8-15.2-6.8c-11.3,0-20.5,9.2-20.5,20.5c0,2.3,0.4,4.5,1.1,6.5
			C151.7,440.4,153.7,443.5,156.4,445.8z"/>
	</g>
	<g>
		<path class="st0" d="M603.6,466.1c3.1,6.3,4.6,13.2,4.6,20.9c0,7.7-1.5,14.6-4.6,20.8c-3.1,6.2-7,11.1-11.9,14.8
			c-9.8,7.6-20,11.3-30.5,11.3H539v20c0,2.7-0.1,4.8-0.3,6.1c-0.2,1.4-0.7,2.9-1.7,4.7c-1.7,3.2-6.3,4.8-13.8,4.8
			c-8.3,0-13.1-2.2-14.5-6.6c-0.7-2-1.1-5.1-1.1-9.2v-98.4c0-2.7,0.1-4.8,0.3-6.1c0.2-1.4,0.7-2.9,1.7-4.7c1.7-3.2,6.3-4.8,13.8-4.8
			h38c10.4,0,20.5,3.8,30.3,11.3C596.5,455,600.5,460,603.6,466.1z M571.8,498.9c3.4-2.6,5.1-6.5,5.1-11.7s-1.7-9.1-5.1-11.8
			c-3.4-2.7-7-4-10.6-4H539v31.4h22.3C564.9,502.8,568.4,501.5,571.8,498.9z"/>
		<path class="st0" d="M457.6,445c1.1-2.1,2.8-3.5,5.1-4.2c2.2-0.7,5.1-1.1,8.4-1.1s6.1,0.3,8.2,0.9c2.1,0.6,3.6,1.3,4.6,2.1
			c1,0.8,1.7,2.1,2.2,3.7c0.7,1.9,1.1,4.9,1.1,9V554c0,2.8-0.1,4.9-0.3,6.2s-0.7,2.8-1.7,4.6c-1.7,3.2-6.3,4.8-13.8,4.8
			c-4.6,0-7.8-0.4-9.6-1.1c-1.8-0.7-3.3-1.8-4.4-3.4c-26.6-35.5-44.1-58.6-52.5-69.5V554c0,2.8-0.1,4.9-0.3,6.2s-0.7,2.8-1.7,4.6
			c-1.7,3.2-6.3,4.8-13.8,4.8c-7.3,0-11.8-1.6-13.5-4.8c-0.9-1.8-1.5-3.4-1.7-4.8c-0.2-1.4-0.3-3.5-0.3-6.2v-99
			c0-4.5,0.6-7.8,1.7-9.8c1.1-2.1,2.8-3.5,5.1-4.2c2.2-0.7,5.1-1.1,8.7-1.1c3.5,0,6.4,0.3,8.4,1c2.1,0.7,3.5,1.4,4.3,2.2
			c0.5,0.4,1.8,1.9,4.1,4.6c24.9,33.9,41.6,56.3,50,67.2v-59.9C455.9,450.3,456.4,447.1,457.6,445z"/>
	</g>
	<g>
		<path class="st0" d="M638.5,445.7h37.2c1.4,0,2.5,0.2,3.1,0.5c0.7,0.3,1.1,0.9,1.3,1.6s0.3,1.7,0.3,2.8s-0.1,2.1-0.3,2.8
			c-0.2,0.7-0.6,1.2-1.1,1.4c-0.8,0.4-1.9,0.6-3.4,0.6h-12.8V489c0,1,0,1.8-0.1,2.3s-0.3,1.1-0.6,1.7s-0.9,1.1-1.8,1.4
			c-0.8,0.3-2,0.4-3.3,0.4c-1.4,0-2.5-0.1-3.3-0.4s-1.4-0.7-1.7-1.4c-0.3-0.6-0.5-1.2-0.6-1.7s-0.1-1.3-0.1-2.3v-33.6h-12.9
			c-1.4,0-2.5-0.2-3.1-0.5c-0.7-0.3-1.1-0.9-1.3-1.6s-0.3-1.7-0.3-2.8c0-1.2,0.1-2.1,0.3-2.8c0.2-0.7,0.6-1.2,1.1-1.4
			C635.9,445.9,637,445.7,638.5,445.7z"/>
		<path class="st0" d="M718.2,472.9c0,2.7-0.7,4.8-2,6.1c-1.4,1.3-2.9,2-4.5,2h-15.9c0,1.3,0.7,2.3,2.2,3.1c1.5,0.8,2.9,1.3,4.4,1.3
			c2.6,0,4.6-0.3,6.1-0.8l0.7-0.3c1.1-0.5,2-0.7,2.7-0.7c1.4,0,2.7,1,3.7,3c0.6,1.2,0.9,2.2,0.9,3.1c0,4-4.8,6-14.3,6
			c-3.3,0-6.2-0.6-8.8-1.7s-4.6-2.6-6-4.5c-2.8-3.6-4.2-7.7-4.2-12.1c0-5.6,1.8-10.1,5.5-13.5c3.6-3.4,8.2-5.1,13.6-5.1
			c6.2,0,10.8,2.2,13.7,6.6C717.5,467.7,718.2,470.2,718.2,472.9z M704.1,474.9c1.7,0,2.5-0.7,2.5-2.1c0-1-0.4-1.9-1.2-2.5
			s-1.9-0.9-3.3-0.9s-2.9,0.6-4.3,1.8c-1.4,1.2-2.1,2.4-2.1,3.8L704.1,474.9L704.1,474.9z"/>
		<path class="st0" d="M742.2,459.5c4.5,0,8.2,1.7,11.1,5.1c3,3.4,4.5,7.6,4.5,12.5v11.8c0,1,0,1.8-0.1,2.3s-0.3,1.1-0.6,1.7
			c-0.6,1.2-2.4,1.8-5.2,1.8c-3.2,0-5-0.8-5.5-2.5c-0.3-0.8-0.4-1.9-0.4-3.4V477c0-1.8-0.5-3.3-1.6-4.3c-1-1-2.5-1.5-4.2-1.5
			c-1.8,0-3.2,0.5-4.3,1.6s-1.6,2.5-1.6,4.2v11.9c0,1,0,1.8-0.1,2.3s-0.3,1.1-0.6,1.7c-0.6,1.2-2.3,1.8-5.2,1.8
			c-2.8,0-4.5-0.6-5.2-1.8c-0.3-0.7-0.5-1.3-0.6-1.8s-0.1-1.3-0.1-2.3v-23.7c0-1,0-1.7,0.1-2.2s0.3-1.1,0.6-1.7
			c0.6-1.1,2.3-1.7,5.2-1.7c2.7,0,4.4,0.5,5,1.5c0.4,0.8,0.7,1.7,0.7,2.7c0.2-0.3,0.6-0.8,1.2-1.3c0.6-0.6,1.2-1,1.8-1.4
			C738.7,460,740.4,459.5,742.2,459.5z"/>
		<path class="st0" d="M782.8,459.5c4.5,0,8.2,1.7,11.1,5.1c3,3.4,4.5,7.6,4.5,12.5v11.8c0,1,0,1.8-0.1,2.3s-0.3,1.1-0.6,1.7
			c-0.6,1.2-2.4,1.8-5.2,1.8c-3.2,0-5-0.8-5.5-2.5c-0.3-0.8-0.4-1.9-0.4-3.4V477c0-1.8-0.5-3.3-1.6-4.3c-1-1-2.5-1.5-4.2-1.5
			c-1.8,0-3.2,0.5-4.3,1.6s-1.6,2.5-1.6,4.2v11.9c0,1,0,1.8-0.1,2.3s-0.3,1.1-0.6,1.7c-0.6,1.2-2.3,1.8-5.2,1.8
			c-2.8,0-4.5-0.6-5.2-1.8c-0.3-0.7-0.5-1.3-0.6-1.8s-0.1-1.3-0.1-2.3v-23.7c0-1,0-1.7,0.1-2.2s0.3-1.1,0.6-1.7
			c0.6-1.1,2.3-1.7,5.2-1.7c2.7,0,4.4,0.5,5,1.5c0.4,0.8,0.7,1.7,0.7,2.7c0.2-0.3,0.6-0.8,1.2-1.3c0.6-0.6,1.2-1,1.8-1.4
			C779.3,460,781,459.5,782.8,459.5z"/>
		<path class="st0" d="M814.8,453c-0.3,0.6-0.9,1.1-1.8,1.4c-0.8,0.3-2,0.4-3.4,0.4s-2.5-0.1-3.4-0.4c-0.8-0.3-1.4-0.7-1.8-1.4
			c-0.3-0.7-0.5-1.3-0.6-1.8s-0.1-1.3-0.1-2.3s0-1.8,0.1-2.3s0.3-1.1,0.6-1.7c0.6-1.2,2.4-1.8,5.2-1.8s4.5,0.6,5.1,1.8
			c0.4,0.7,0.6,1.3,0.6,1.8c0.1,0.5,0.1,1.3,0.1,2.3s0,1.8-0.1,2.3C815.3,451.8,815.1,452.3,814.8,453z M803.7,465.4
			c0-1,0-1.8,0.1-2.3s0.3-1.1,0.6-1.8c0.6-1.2,2.4-1.7,5.2-1.7c2.1,0,3.7,0.4,4.6,1.1c0.8,0.6,1.2,1.6,1.2,2.9
			c0,0.4,0.1,1.1,0.1,1.9V489c0,1,0,1.8-0.1,2.3s-0.3,1.1-0.6,1.8c-0.6,1.2-2.3,1.7-5.2,1.7c-2.8,0-4.5-0.6-5.2-1.8
			c-0.3-0.7-0.5-1.2-0.6-1.7s-0.1-1.3-0.1-2.3V465.4z"/>
		<path class="st0" d="M821.1,491.7c-0.8-0.5-1.3-1.4-1.3-2.5s0.8-2.9,2.5-5.3c0.5-0.8,1.3-1.1,2.4-1.1s2.6,0.5,4.5,1.6
			s3.6,1.6,5.1,1.6c2.7,0,4.1-0.5,4.1-1.6c0-0.8-1.5-1.5-4.5-1.9c-2.8-0.4-5.6-1.4-8.4-3.1c-1.3-0.8-2.4-2.1-3.2-3.8
			c-0.8-1.7-1.3-3.8-1.3-6.1c0-7.1,4.8-10.6,14.5-10.6c3.2,0,6.4,0.8,9.8,2.3c1.6,0.7,2.3,1.6,2.3,2.7s-0.5,2.4-1.5,3.9
			c-1,1.6-2,2.3-3,2.3c-0.5,0-1.5-0.3-3-1s-3-1-4.7-1c-2.6,0-4,0.5-4,1.5c0,1.3,1.5,2.2,4.6,2.6c2.9,0.3,5.8,1.2,8.6,2.5
			c1.3,0.6,2.4,1.7,3.2,3.2c0.9,1.5,1.3,3.5,1.3,5.8s-0.4,4.3-1.3,5.9c-0.9,1.6-2.1,2.8-3.6,3.6c-2.9,1.4-6.4,2.1-10.7,2.1
			C829.2,495.4,825.1,494.2,821.1,491.7z"/>
	</g>
	<g>
		<path class="st0" d="M663.6,520.9l18.1,37.4c0.8,1.5,1.1,2.7,1.1,3.4c0,1.6-1.3,3.1-3.9,4.4c-1.5,0.8-2.7,1.1-3.6,1.1
			s-1.6-0.2-2.1-0.6c-0.6-0.4-1-0.8-1.2-1.3c-0.2-0.4-0.6-1.1-1-2l-3.5-7.2H649l-3.5,7.2c-0.4,0.9-0.8,1.5-1,1.9s-0.6,0.8-1.2,1.2
			c-0.6,0.4-1.3,0.6-2.1,0.6s-2.1-0.4-3.6-1.1c-2.6-1.2-3.9-2.7-3.9-4.3c0-0.8,0.4-1.9,1.1-3.4l18.1-37.4c0.5-1,1.2-1.9,2.2-2.5
			s2.1-0.9,3.2-0.9C660.7,517.4,662.5,518.6,663.6,520.9z M658.2,537l-4.4,9.2h8.9L658.2,537z"/>
		<path class="st0" d="M697.6,548.9c0,1.9,0.6,3.4,1.9,4.4c1.2,1.1,2.6,1.6,4,1.6s2.7-0.4,3.9-1.2s2.2-1.2,3-1.2
			c1.3,0,3,1.2,4.9,3.5c1,1.3,1.5,2.5,1.5,3.5c0,1.7-1.2,3.3-3.7,4.8c-2.5,1.8-5.7,2.7-9.4,2.7c-4.2,0-8.1-1.5-12-4.5
			c-1.8-1.4-3.3-3.3-4.5-5.7s-1.7-5-1.7-7.9s0.6-5.5,1.7-7.8c1.2-2.3,2.7-4.2,4.5-5.7c3.7-2.9,7.7-4.4,11.9-4.4c1.7,0,3.3,0.2,5,0.7
			c1.6,0.5,2.8,0.9,3.5,1.4l1.1,0.7c0.8,0.5,1.4,1,1.9,1.3c1.2,0.9,1.7,1.9,1.7,3s-0.5,2.4-1.4,3.8c-1.6,2.5-3.1,3.7-4.6,3.7
			c-0.8,0-2.1-0.5-3.6-1.5c-0.8-0.8-2-1.1-3.4-1.1c-1.5,0-2.9,0.5-4.2,1.6C698.2,545.5,697.6,547,697.6,548.9z"/>
		<path class="st0" d="M744,535c0.3-2.5,2-3.7,5.3-3.7c1.7,0,3,0.1,3.9,0.4c0.8,0.3,1.4,0.7,1.8,1.4c0.3,0.7,0.5,1.3,0.6,1.8
			s0.1,1.3,0.1,2.3v23.4c0,1,0,1.8-0.1,2.3s-0.3,1.1-0.6,1.8c-0.6,1.2-2.2,1.7-4.6,1.7c-2.4,0-4.1-0.3-4.9-0.9
			c-0.8-0.6-1.3-1.5-1.4-2.6c-1.7,2.4-4.4,3.5-8.3,3.5c-3.9,0-7.4-1.8-10.7-5.3s-5-7.6-5-12.3s1.7-8.7,5-12.3
			c3.3-3.5,7-5.3,10.9-5.3c1.5,0,2.9,0.3,4.2,0.8c1.2,0.5,2.1,1,2.6,1.5C743.3,534.1,743.7,534.5,744,535z M731.9,548.9
			c0,1.5,0.6,2.8,1.7,4c1.2,1.2,2.6,1.8,4.2,1.8c1.7,0,3-0.6,4.1-1.8s1.6-2.5,1.6-4c0-1.4-0.5-2.8-1.6-4.1c-1-1.3-2.5-1.9-4.2-1.9
			c-1.8,0-3.2,0.6-4.3,1.9C732.4,546.1,731.9,547.4,731.9,548.9z"/>
		<path class="st0" d="M784.7,516.5c0.3-0.6,0.9-1.1,1.8-1.4c0.8-0.3,2-0.4,3.4-0.4s2.5,0.1,3.4,0.4c0.8,0.3,1.4,0.7,1.8,1.4
			c0.3,0.7,0.5,1.3,0.6,1.8s0.1,1.3,0.1,2.3v40c0,1,0,1.8-0.1,2.3s-0.3,1.1-0.6,1.7c-0.7,1.2-2.6,1.8-5.7,1.8
			c-3.1,0-4.8-1.1-5.2-3.3c-1.9,2.1-4.5,3.2-7.8,3.2c-4,0-7.7-1.8-11-5.3s-5-7.6-5-12.3s1.7-8.8,5-12.3s7-5.3,10.9-5.3
			c3.3,0,5.9,1.1,7.7,3.3v-14.1c0-1,0-1.8,0.1-2.3C784.2,517.8,784.4,517.2,784.7,516.5z M773.8,552.9c1.2,1.2,2.6,1.8,4.2,1.8
			c1.7,0,3-0.6,4.1-1.8s1.6-2.5,1.6-4c0-1.4-0.5-2.8-1.6-4.1c-1-1.2-2.5-1.9-4.3-1.9s-3.2,0.6-4.3,1.8s-1.6,2.6-1.6,4.1
			C772.1,550.4,772.7,551.7,773.8,552.9z"/>
		<path class="st0" d="M835.1,544.7c0,2.7-0.7,4.8-2,6.1c-1.4,1.3-2.9,2-4.5,2h-15.9c0,1.3,0.7,2.3,2.2,3.1s2.9,1.3,4.4,1.3
			c2.6,0,4.6-0.3,6.1-0.8l0.7-0.3c1.1-0.5,2-0.7,2.7-0.7c1.4,0,2.7,1,3.7,3c0.6,1.2,0.9,2.2,0.9,3.1c0,4-4.8,6-14.3,6
			c-3.3,0-6.2-0.6-8.8-1.7c-2.6-1.1-4.6-2.6-6-4.5c-2.8-3.6-4.2-7.7-4.2-12.1c0-5.6,1.8-10.1,5.5-13.5c3.6-3.4,8.2-5.1,13.6-5.1
			c6.2,0,10.8,2.2,13.7,6.6C834.3,539.4,835.1,541.9,835.1,544.7z M821,546.6c1.7,0,2.5-0.7,2.5-2.1c0-1-0.4-1.9-1.2-2.5
			s-1.9-0.9-3.3-0.9s-2.9,0.6-4.3,1.8c-1.4,1.2-2.1,2.4-2.1,3.8L821,546.6L821,546.6z"/>
		<path class="st0" d="M851,535.9c2.1-3.2,4.6-4.8,7.6-4.8c4.6,0,7.9,1.9,10.2,5.8c0.5-0.7,1.1-1.4,1.8-2.1c0.7-0.7,1.8-1.5,3.3-2.4
			s3.1-1.3,4.7-1.3c3.6,0,6.6,1.4,9,4.1c2.4,2.7,3.6,7.3,3.6,13.6v11.7c0,1,0,1.8-0.1,2.3s-0.3,1.1-0.6,1.8
			c-0.6,1.2-2.3,1.8-5.2,1.8c-2.8,0-4.5-0.6-5.2-1.9c-0.3-0.7-0.5-1.3-0.6-1.8s-0.1-1.3-0.1-2.3v-11.7c0-3.9-1.4-5.8-4.2-5.8
			c-1.6,0-2.6,0.5-3.2,1.5c-0.6,1-0.8,2.5-0.8,4.4v11.7c0,1.1,0,1.9-0.1,2.3c-0.1,0.5-0.3,1.1-0.6,1.7c-0.6,1.2-2.4,1.8-5.2,1.8
			s-4.5-0.6-5.2-1.9c-0.3-0.7-0.5-1.3-0.6-1.8s-0.1-1.3-0.1-2.3v-11.7c0-3.9-1.4-5.8-4.2-5.8c-2.7,0-4,1.9-4,5.8v11.8
			c0,1,0,1.8-0.1,2.3s-0.3,1.1-0.6,1.8c-0.7,1.2-2.4,1.7-5.2,1.7s-4.5-0.6-5.2-1.8c-0.3-0.7-0.5-1.2-0.6-1.7s-0.1-1.3-0.1-2.3v-23.6
			c0-1,0-1.8,0.1-2.3s0.3-1.1,0.6-1.7c0.7-1.2,2.3-1.8,4.8-1.8s4.1,0.4,4.9,1.2C850.6,533.3,851,534.4,851,535.9z"/>
		<path class="st0" d="M929.2,531.6c2.6,1.2,4,2.6,4,4.2c0,0.8-0.2,1.6-0.5,2.3c-0.4,0.7-0.5,1.1-0.5,1.1l-17.5,39.2
			c-0.4,0.8-0.7,1.5-0.9,1.9s-0.6,0.9-1.2,1.3c-0.5,0.4-1.2,0.6-2,0.6s-2-0.3-3.5-1c-2.6-1.2-4-2.5-4-4.2c0-1.1,2.1-6.2,6.4-15.3
			l-13.3-22.4c-0.9-1.5-1.3-2.6-1.3-3.3c0-1.4,1.2-2.9,3.6-4.3c1.5-0.9,2.7-1.3,3.5-1.3s1.5,0.2,2.1,0.5c0.5,0.4,0.9,0.7,1.2,1.1
			c0.2,0.4,1.5,2.5,3.7,6.2s4.3,7.3,6.3,10.5c0.2-0.7,1.4-3.5,3.6-8.3c2.2-4.8,3.4-7.4,3.5-7.7c0.2-0.3,0.4-0.7,0.8-1.1
			c0.6-0.8,1.4-1.1,2.4-1.1S927.8,531,929.2,531.6z"/>
	</g>
</g>
</svg>
