<?xml version="1.0" encoding="utf-8"?>
<!-- Generator: Adobe Illustrator 23.0.2, SVG Export Plug-In . SVG Version: 6.00 Build 0)  -->
<svg version="1.1" id="Шар_1" xmlns="http://www.w3.org/2000/svg" xmlns:xlink="http://www.w3.org/1999/xlink" x="0px" y="0px"
	 viewBox="0 0 1000 1000" style="enable-background:new 0 0 1000 1000;" xml:space="preserve">
<style type="text/css">
	.st0{fill:#7EA875;}
</style>
<g id="logo_1">
	<g>
		<path class="st0" d="M407.8,466.7c-0.1,5.9-0.5,11.8-1.2,17.7c-1,8.4-2.6,16.8-4.8,25c8-4.6,16.2-8.6,24.7-12.1
			c5.1-2.1,10.2-4,15.4-5.7c-6.9-2.8-13.4-6.5-19.5-11.1C416.9,476.4,412,471.8,407.8,466.7z"/>
		<path class="st0" d="M472.1,248.2c-5.8-4.4-12.7-6.7-19.9-6.7c-1.6,0-3.1,0.1-4.7,0.3c-8.8,1.2-16.5,5.8-21.9,12.9
			c-10.1,13.4-8.5,32,3.1,43.5c1.1,1,2.2,2,3.4,3c2.5,1.9,5.2,3.4,8,4.4c13.5,5.2,29.4,1.1,38.5-11c3.8-5.1,6-10.9,6.5-16.8
			c0.1-1,0.2-2.1,0.2-3.1c0-3.5-0.6-7-1.6-10.3C481.7,258.1,477.8,252.4,472.1,248.2z"/>
		<path class="st0" d="M480.6,179.2c-119,0-215.5,96.5-215.5,215.5c0,67.8,31.3,128.2,80.2,167.7l44.3-58.9c1.7-6.8,3-13.7,3.8-20.7
			c1.6-13.1,1.6-26.3,0-39.4c-16.3-37.9-9.8-87.9,20.7-128.4c2.5-3.3,5-6.4,7.7-9.4c-6.8-6.7-11.2-15.3-12.5-24.9
			c-1.6-11.5,1.3-22.9,8.3-32.1c7-9.3,17.1-15.2,28.6-16.9c11.5-1.6,22.9,1.3,32.1,8.3c7.4,5.5,12.6,13.1,15.3,21.7
			c29-6.7,58.6-2.1,81.8,15.3c22.8,17.2,36.2,44,37.6,75.5c1.4,31-9.1,63-29.4,90c-27.3,36.3-67.3,56.3-104.8,56.3
			c-3.3,0-6.7-0.2-9.9-0.5c-12.8,2.5-25.4,6.3-37.4,11.2c-7.1,2.9-14.1,6.3-20.8,10.1L367,577.8c33,20.6,72,32.4,113.7,32.4
			c119,0,215.5-96.5,215.5-215.5S599.6,179.2,480.6,179.2z"/>
		<path class="st0" d="M430.3,469.9c40.9,30.8,104.9,14.9,142.7-35.4c18.5-24.5,27.9-53.5,26.7-81.4c-1.2-27.5-12.7-50.8-32.3-65.5
			c-14.1-10.6-31-15.7-48.6-15.7c-7.7,0-15.5,1-23.3,2.8c0,9.3-3,18.4-8.7,26c-4.2,5.7-9.6,10-15.6,12.9s-12.5,4.4-19.1,4.4
			c-6.7,0-13.3-1.5-19.5-4.7c-2.7,3.1-5.4,6.3-7.9,9.6C386.9,373.2,389.4,439.2,430.3,469.9z M573.7,365.1c2,1.5,2.4,4.4,0.9,6.4
			l-61.7,82c-0.9,1.2-2.3,1.8-3.7,1.8c-1,0-1.9-0.3-2.8-0.9c-2-1.5-2.4-4.4-0.9-6.4l61.7-82C568.8,364,571.7,363.6,573.7,365.1z
			 M557.8,332c2,1.5,2.4,4.4,0.9,6.4l-87.5,116.3c-0.9,1.2-2.3,1.8-3.7,1.8c-1,0-1.9-0.3-2.8-0.9c-2-1.5-2.4-4.4-0.9-6.4l87.5-116.3
			C552.9,330.9,555.8,330.5,557.8,332z M524.7,310.5c1.5-2,4.4-2.4,6.4-0.9s2.4,4.4,0.9,6.4l-87.5,116.3c-0.9,1.2-2.3,1.8-3.7,1.8
			c-1,0-1.9-0.3-2.8-0.9c-2-1.5-2.4-4.4-0.9-6.4L524.7,310.5z M428.4,390l61.7-82c1.5-2,4.4-2.4,6.4-0.9s2.4,4.4,0.9,6.4l-61.7,82
			c-0.9,1.2-2.3,1.8-3.7,1.8c-1,0-1.9-0.3-2.8-0.9C427.3,394.9,426.9,392,428.4,390z"/>
	</g>
	<g>
		<path class="st0" d="M456.6,710.2c2.9,5.8,4.3,12.4,4.3,19.5c0,7.2-1.4,13.6-4.3,19.4c-2.9,5.8-6.6,10.4-11.1,13.8
			c-9.2,7.1-18.6,10.6-28.5,10.6h-20.7v18.7c0,2.5-0.1,4.4-0.2,5.7c-0.2,1.3-0.7,2.7-1.6,4.4c-1.5,3-5.8,4.5-12.9,4.5
			c-7.7,0-12.2-2-13.6-6.1c-0.7-1.9-1-4.7-1-8.6v-91.8c0-2.5,0.1-4.4,0.2-5.7c0.2-1.3,0.7-2.7,1.6-4.4c1.5-3,5.8-4.5,12.9-4.5h35.4
			c9.7,0,19.1,3.5,28.3,10.6C450,699.8,453.7,704.4,456.6,710.2z M427,740.7c3.2-2.4,4.8-6.1,4.8-10.9c0-4.9-1.6-8.5-4.8-11
			c-3.2-2.5-6.5-3.7-9.9-3.7h-20.7v29.3h20.8C420.5,744.3,423.8,743.1,427,740.7z"/>
		<path class="st0" d="M317.1,690.7c1-1.9,2.6-3.2,4.7-3.9c2.1-0.7,4.7-1,7.9-1s5.7,0.3,7.6,0.8c1.9,0.6,3.4,1.2,4.3,2
			c0.9,0.8,1.6,1.9,2.1,3.5c0.7,1.8,1,4.6,1,8.4v91.8c0,2.6-0.1,4.6-0.2,5.8c-0.2,1.2-0.7,2.6-1.6,4.3c-1.5,3-5.8,4.5-12.9,4.5
			c-4.3,0-7.3-0.3-8.9-1c-1.7-0.7-3-1.7-4.1-3.1c-24.8-33.1-41.1-54.7-49-64.9v54.4c0,2.6-0.1,4.6-0.2,5.8c-0.2,1.2-0.7,2.6-1.6,4.3
			c-1.5,3-5.8,4.5-12.9,4.5c-6.8,0-11-1.5-12.6-4.5c-0.9-1.7-1.4-3.1-1.6-4.5c-0.2-1.3-0.2-3.3-0.2-5.8v-92.3c0-4.2,0.5-7.3,1.6-9.2
			c1-1.9,2.6-3.2,4.7-3.9c2.1-0.7,4.8-1,8.1-1c3.3,0,5.9,0.3,7.9,0.9c1.9,0.6,3.3,1.3,4.1,2.1c0.4,0.3,1.7,1.8,3.8,4.3
			c23.3,31.7,38.8,52.6,46.7,62.7v-55.9C315.5,695.7,316,692.6,317.1,690.7z"/>
	</g>
	<g>
		<path class="st0" d="M486.1,693.3h34.7c1.3,0,2.3,0.2,2.9,0.5c0.6,0.3,1,0.8,1.2,1.5s0.3,1.5,0.3,2.6s-0.1,1.9-0.3,2.6
			c-0.2,0.6-0.6,1.1-1.1,1.3c-0.7,0.4-1.8,0.6-3.2,0.6h-11.9v31.4c0,1,0,1.7-0.1,2.1c-0.1,0.5-0.3,1-0.6,1.6c-0.3,0.6-0.9,1-1.7,1.3
			c-0.8,0.2-1.8,0.4-3.1,0.4c-1.3,0-2.3-0.1-3.1-0.4c-0.8-0.3-1.3-0.7-1.6-1.3c-0.3-0.6-0.5-1.1-0.6-1.6s-0.1-1.2-0.1-2.2v-31.4h-12
			c-1.3,0-2.3-0.2-2.9-0.5s-1-0.8-1.2-1.5s-0.3-1.5-0.3-2.6s0.1-1.9,0.3-2.6c0.2-0.6,0.6-1.1,1.1-1.3
			C483.7,693.5,484.7,693.3,486.1,693.3z"/>
		<path class="st0" d="M560.5,718.8c0,2.6-0.6,4.5-1.9,5.7c-1.3,1.2-2.7,1.8-4.2,1.8h-14.8c0,1.2,0.7,2.1,2.1,2.9
			c1.4,0.8,2.7,1.2,4.1,1.2c2.4,0,4.3-0.3,5.7-0.7l0.7-0.3c1-0.5,1.8-0.7,2.5-0.7c1.3,0,2.5,0.9,3.4,2.8c0.5,1.1,0.8,2.1,0.8,2.9
			c0,3.7-4.4,5.6-13.3,5.6c-3.1,0-5.8-0.5-8.2-1.6s-4.3-2.5-5.6-4.2c-2.6-3.4-3.9-7.1-3.9-11.3c0-5.2,1.7-9.4,5.1-12.6
			c3.4-3.1,7.6-4.7,12.7-4.7c5.8,0,10,2,12.7,6.1C559.8,713.9,560.5,716.2,560.5,718.8z M547.3,720.6c1.6,0,2.4-0.7,2.4-2
			c0-1-0.4-1.7-1.1-2.3c-0.7-0.6-1.8-0.9-3.1-0.9s-2.7,0.6-4,1.7c-1.3,1.1-2,2.3-2,3.5H547.3z"/>
		<path class="st0" d="M582.9,706.3c4.2,0,7.6,1.6,10.4,4.8c2.8,3.2,4.2,7.1,4.2,11.6v11c0,1,0,1.7-0.1,2.2s-0.2,1-0.5,1.6
			c-0.6,1.1-2.2,1.7-4.9,1.7c-3,0-4.7-0.8-5.1-2.3c-0.2-0.7-0.4-1.8-0.4-3.2v-11c0-1.7-0.5-3-1.5-4s-2.3-1.4-3.9-1.4
			c-1.6,0-3,0.5-4,1.5s-1.5,2.3-1.5,3.9v11.1c0,1,0,1.7-0.1,2.2s-0.3,1-0.6,1.6c-0.5,1.1-2.1,1.7-4.8,1.7c-2.6,0-4.2-0.6-4.8-1.7
			c-0.3-0.6-0.5-1.2-0.5-1.7c-0.1-0.5-0.1-1.2-0.1-2.2v-22.1c0-0.9,0-1.6,0.1-2.1s0.3-1,0.6-1.6c0.6-1,2.2-1.6,4.8-1.6
			c2.5,0,4.1,0.5,4.7,1.4c0.4,0.7,0.6,1.6,0.6,2.6c0.2-0.3,0.5-0.7,1.1-1.2s1.1-1,1.7-1.3C579.6,706.7,581.1,706.3,582.9,706.3z"/>
		<path class="st0" d="M620.7,706.3c4.2,0,7.6,1.6,10.4,4.8c2.8,3.2,4.2,7.1,4.2,11.6v11c0,1,0,1.7-0.1,2.2s-0.2,1-0.5,1.6
			c-0.6,1.1-2.2,1.7-4.9,1.7c-3,0-4.7-0.8-5.1-2.3c-0.2-0.7-0.4-1.8-0.4-3.2v-11c0-1.7-0.5-3-1.5-4s-2.3-1.4-3.9-1.4
			c-1.6,0-3,0.5-4,1.5s-1.5,2.3-1.5,3.9v11.1c0,1,0,1.7-0.1,2.2s-0.3,1-0.6,1.6c-0.5,1.1-2.1,1.7-4.8,1.7c-2.6,0-4.2-0.6-4.8-1.7
			c-0.3-0.6-0.5-1.2-0.5-1.7c-0.1-0.5-0.1-1.2-0.1-2.2v-22.1c0-0.9,0-1.6,0.1-2.1s0.3-1,0.6-1.6c0.6-1,2.2-1.6,4.8-1.6
			c2.5,0,4.1,0.5,4.7,1.4c0.4,0.7,0.6,1.6,0.6,2.6c0.2-0.3,0.5-0.7,1.1-1.2s1.1-1,1.7-1.3C617.4,706.7,619,706.3,620.7,706.3z"/>
		<path class="st0" d="M650.5,700.2c-0.3,0.6-0.9,1-1.7,1.3c-0.8,0.2-1.8,0.4-3.2,0.4c-1.3,0-2.4-0.1-3.2-0.4
			c-0.8-0.2-1.3-0.7-1.7-1.3c-0.3-0.6-0.5-1.2-0.6-1.7s-0.1-1.2-0.1-2.2s0-1.7,0.1-2.2s0.2-1,0.5-1.6c0.6-1.1,2.2-1.7,4.9-1.7
			c2.6,0,4.2,0.6,4.7,1.7c0.3,0.6,0.5,1.2,0.6,1.7s0.1,1.2,0.1,2.2s0,1.7-0.1,2.2C651,699,650.8,699.6,650.5,700.2z M640.3,711.7
			c0-1,0-1.7,0.1-2.2s0.2-1,0.5-1.7c0.6-1.1,2.2-1.6,4.9-1.6c2,0,3.4,0.4,4.2,1.1c0.7,0.6,1.1,1.5,1.1,2.7c0,0.4,0.1,1,0.1,1.8v21.9
			c0,1,0,1.7-0.1,2.2s-0.3,1-0.6,1.7c-0.5,1.1-2.1,1.6-4.8,1.6c-2.6,0-4.2-0.6-4.8-1.7c-0.3-0.6-0.5-1.2-0.5-1.6
			c-0.1-0.5-0.1-1.2-0.1-2.2L640.3,711.7L640.3,711.7z"/>
		<path class="st0" d="M656.4,736.2c-0.8-0.5-1.2-1.3-1.2-2.4c0-1.1,0.8-2.7,2.4-4.9c0.5-0.7,1.2-1.1,2.2-1.1s2.4,0.5,4.2,1.5
			c1.7,1,3.3,1.5,4.7,1.5c2.5,0,3.8-0.5,3.8-1.5c0-0.8-1.4-1.4-4.2-1.7c-2.6-0.4-5.2-1.4-7.8-2.9c-1.2-0.7-2.2-1.9-3-3.5
			s-1.2-3.5-1.2-5.7c0-6.6,4.5-9.9,13.6-9.9c3,0,6,0.7,9.1,2.1c1.5,0.7,2.2,1.5,2.2,2.5s-0.5,2.2-1.4,3.7s-1.9,2.2-2.8,2.2
			c-0.5,0-1.4-0.3-2.8-0.9c-1.4-0.6-2.8-0.9-4.4-0.9c-2.5,0-3.7,0.5-3.7,1.4c0,1.2,1.4,2.1,4.2,2.4c2.7,0.3,5.4,1.1,8,2.4
			c1.2,0.6,2.2,1.6,3,3s1.2,3.2,1.2,5.4s-0.4,4-1.2,5.5s-1.9,2.7-3.4,3.4c-2.7,1.3-6,1.9-10,1.9C664,739.7,660.1,738.6,656.4,736.2z
			"/>
	</g>
	<g>
		<path class="st0" d="M509.5,763.5l16.9,34.9c0.7,1.4,1.1,2.5,1.1,3.2c0,1.5-1.2,2.9-3.6,4.1c-1.4,0.7-2.5,1.1-3.3,1.1
			s-1.5-0.2-2-0.6c-0.5-0.4-0.9-0.8-1.1-1.2c-0.2-0.4-0.6-1-1-1.9l-3.2-6.7H496l-3.2,6.7c-0.4,0.8-0.7,1.4-1,1.8
			c-0.2,0.4-0.6,0.8-1.1,1.2s-1.2,0.6-2,0.6s-1.9-0.4-3.3-1.1c-2.4-1.2-3.6-2.5-3.6-4c0-0.7,0.4-1.8,1.1-3.2l16.9-34.9
			c0.5-1,1.2-1.7,2.1-2.3s1.9-0.9,3-0.9C506.8,760.3,508.5,761.4,509.5,763.5z M504.5,778.5l-4.1,8.6h8.3L504.5,778.5z"/>
		<path class="st0" d="M541.2,789.6c0,1.8,0.6,3.1,1.7,4.1c1.2,1,2.4,1.5,3.7,1.5s2.5-0.4,3.7-1.2c1.1-0.8,2.1-1.2,2.8-1.2
			c1.2,0,2.8,1.1,4.6,3.3c1,1.2,1.4,2.3,1.4,3.2c0,1.6-1.1,3.1-3.4,4.4c-2.4,1.7-5.3,2.5-8.7,2.5c-3.9,0-7.6-1.4-11.2-4.2
			c-1.7-1.3-3.1-3.1-4.2-5.3c-1.1-2.2-1.6-4.7-1.6-7.4s0.5-5.1,1.6-7.3s2.5-3.9,4.2-5.3c3.5-2.7,7.1-4.1,11.1-4.1
			c1.6,0,3.1,0.2,4.6,0.7s2.6,0.9,3.3,1.3l1,0.6c0.7,0.5,1.3,0.9,1.7,1.2c1.1,0.8,1.6,1.8,1.6,2.8c0,1.1-0.4,2.3-1.3,3.6
			c-1.5,2.3-2.9,3.4-4.3,3.4c-0.8,0-1.9-0.5-3.4-1.4c-0.7-0.7-1.8-1.1-3.2-1.1s-2.7,0.5-3.9,1.5
			C541.8,786.5,541.2,787.9,541.2,789.6z"/>
		<path class="st0" d="M584.6,776.7c0.3-2.3,1.9-3.5,4.9-3.5c1.6,0,2.8,0.1,3.6,0.4c0.8,0.3,1.3,0.7,1.7,1.3
			c0.3,0.6,0.5,1.2,0.6,1.7s0.1,1.2,0.1,2.2v21.9c0,1,0,1.7-0.1,2.2s-0.2,1-0.5,1.7c-0.6,1.1-2,1.6-4.3,1.6s-3.8-0.3-4.6-0.8
			c-0.8-0.6-1.2-1.4-1.3-2.5c-1.5,2.2-4.1,3.3-7.7,3.3c-3.6,0-6.9-1.6-10-4.9c-3.1-3.3-4.6-7.1-4.6-11.5s1.6-8.2,4.7-11.4
			c3.1-3.3,6.5-4.9,10.2-4.9c1.4,0,2.7,0.3,3.9,0.7c1.2,0.5,2,1,2.4,1.4C583.9,775.8,584.3,776.2,584.6,776.7z M573.2,789.7
			c0,1.4,0.5,2.6,1.6,3.7c1.1,1.1,2.4,1.7,3.9,1.7s2.8-0.6,3.8-1.7c1-1.1,1.5-2.4,1.5-3.7c0-1.4-0.5-2.6-1.5-3.8s-2.3-1.8-3.9-1.8
			c-1.6,0-3,0.6-4,1.8C573.7,787,573.2,788.3,573.2,789.7z"/>
		<path class="st0" d="M622.5,759.5c0.3-0.6,0.9-1,1.7-1.3c0.8-0.2,1.8-0.4,3.2-0.4c1.3,0,2.4,0.1,3.2,0.4c0.8,0.3,1.3,0.7,1.7,1.3
			c0.3,0.6,0.5,1.2,0.6,1.7s0.1,1.2,0.1,2.2v37.3c0,1,0,1.7-0.1,2.2s-0.3,1-0.6,1.6c-0.6,1.1-2.4,1.7-5.3,1.7c-2.9,0-4.5-1-4.8-3.1
			c-1.7,2-4.2,3-7.3,3c-3.7,0-7.2-1.6-10.2-4.9c-3.1-3.3-4.6-7.1-4.6-11.4c0-4.4,1.6-8.2,4.7-11.5c3.1-3.3,6.5-4.9,10.2-4.9
			c3.1,0,5.5,1,7.2,3.1v-13.1c0-1,0-1.7,0.1-2.2C622,760.6,622.2,760.1,622.5,759.5z M612.4,793.4c1.1,1.1,2.4,1.7,3.9,1.7
			s2.8-0.6,3.8-1.7c1-1.1,1.5-2.4,1.5-3.7c0-1.4-0.5-2.6-1.5-3.8s-2.3-1.7-4-1.7s-3,0.6-4,1.7c-1,1.1-1.5,2.4-1.5,3.8
			C610.7,791,611.3,792.3,612.4,793.4z"/>
		<path class="st0" d="M669.5,785.7c0,2.6-0.6,4.5-1.9,5.7c-1.3,1.2-2.7,1.8-4.2,1.8h-14.8c0,1.2,0.7,2.1,2.1,2.9
			c1.4,0.8,2.7,1.2,4.1,1.2c2.4,0,4.3-0.3,5.7-0.7l0.7-0.3c1-0.5,1.8-0.7,2.5-0.7c1.3,0,2.5,0.9,3.4,2.8c0.5,1.1,0.8,2.1,0.8,2.9
			c0,3.7-4.4,5.6-13.3,5.6c-3.1,0-5.8-0.5-8.2-1.6s-4.3-2.5-5.6-4.2c-2.6-3.4-3.9-7.1-3.9-11.3c0-5.2,1.7-9.4,5.1-12.6
			c3.4-3.1,7.6-4.7,12.7-4.7c5.8,0,10,2,12.7,6.1C668.8,780.8,669.5,783.1,669.5,785.7z M656.3,787.5c1.6,0,2.4-0.7,2.4-2
			c0-1-0.4-1.7-1.1-2.3c-0.7-0.6-1.8-0.9-3.1-0.9c-1.4,0-2.7,0.6-4,1.7s-2,2.3-2,3.5H656.3z"/>
		<path class="st0" d="M684.3,777.5c2-3,4.3-4.4,7.1-4.4c4.2,0,7.4,1.8,9.5,5.4c0.5-0.6,1-1.3,1.7-2c0.6-0.7,1.7-1.4,3.1-2.2
			c1.4-0.8,2.9-1.2,4.4-1.2c3.3,0,6.1,1.3,8.4,3.8s3.4,6.8,3.4,12.7v10.9c0,1,0,1.7-0.1,2.2s-0.3,1-0.6,1.7
			c-0.5,1.1-2.1,1.7-4.8,1.7c-2.6,0-4.2-0.6-4.8-1.7c-0.3-0.6-0.5-1.2-0.5-1.7c-0.1-0.5-0.1-1.2-0.1-2.2v-10.9
			c0-3.6-1.3-5.4-3.9-5.4c-1.5,0-2.4,0.5-3,1.4c-0.5,1-0.8,2.3-0.8,4.1v10.9c0,1,0,1.7-0.1,2.2s-0.3,1-0.6,1.6
			c-0.6,1.1-2.2,1.7-4.9,1.7c-2.6,0-4.2-0.6-4.8-1.7c-0.3-0.6-0.5-1.2-0.5-1.7c-0.1-0.5-0.1-1.2-0.1-2.2v-10.9
			c0-3.6-1.3-5.4-3.9-5.4c-2.5,0-3.7,1.8-3.7,5.4v11.1c0,1,0,1.7-0.1,2.2s-0.3,1-0.6,1.7c-0.6,1.1-2.2,1.6-4.9,1.6
			c-2.6,0-4.2-0.6-4.8-1.7c-0.3-0.6-0.5-1.2-0.5-1.6c-0.1-0.5-0.1-1.2-0.1-2.2v-22c0-1,0-1.7,0.1-2.2s0.3-1,0.6-1.6
			c0.6-1.1,2.1-1.7,4.4-1.7c2.3,0,3.9,0.4,4.6,1.1C684,775,684.3,776.1,684.3,777.5z"/>
		<path class="st0" d="M757.3,773.5c2.5,1.1,3.7,2.4,3.7,3.9c0,0.7-0.2,1.5-0.5,2.1c-0.3,0.7-0.5,1-0.5,1.1l-16.4,36.6
			c-0.3,0.8-0.6,1.4-0.8,1.8c-0.2,0.4-0.6,0.8-1.1,1.2s-1.1,0.6-1.9,0.6c-0.7,0-1.9-0.3-3.3-0.9c-2.5-1.1-3.7-2.4-3.7-3.9
			c0-1,2-5.8,6-14.3l-12.4-20.9c-0.8-1.4-1.2-2.4-1.2-3.1c0-1.3,1.1-2.7,3.4-4c1.4-0.8,2.5-1.2,3.3-1.2s1.4,0.2,1.9,0.5
			s0.9,0.7,1.1,1c0.2,0.4,1.4,2.3,3.4,5.8c2.1,3.5,4,6.8,5.9,9.8c0.2-0.7,1.3-3.2,3.4-7.7c2-4.5,3.1-6.9,3.3-7.2
			c0.1-0.3,0.4-0.6,0.7-1.1c0.5-0.7,1.3-1.1,2.3-1.1S756,773,757.3,773.5z"/>
	</g>
</g>
</svg>
